<svg width="110" height="110" viewBox="0 0 110 110" fill="none" xmlns="http://www.w3.org/2000/svg">
<path d="M0 55C0 24.6243 24.6243 0 55 0C85.3757 0 110 24.6243 110 55C110 85.3757 85.3757 110 55 110C24.6243 110 0 85.3757 0 55Z" fill="white"/>
<g filter="url(#filter0_i_234_67307)">
<path fill-rule="evenodd" clip-rule="evenodd" d="M27.2127 22.7154C20.9535 27.0685 10.3928 38.0529 8.51501 54.2338C6.06343 75.3592 20.7729 99.4571 46.3545 103.385C66.8198 106.527 82.3109 94.5738 87.4983 88.2044C99.01 72.9176 97.7309 60.2849 97.7309 60.2849C97.7309 60.2849 96.5584 66.7604 92.0816 70.5822C86.5846 75.2749 82.7017 75.3593 81.849 75.3593C79.5395 73.4838 73.5989 68.6925 67.8857 65.805C60.7441 62.1956 50.1917 56.1446 50.5115 50.1999C50.8341 44.2033 56.5871 41.6011 66.7132 42.3442C67.033 42.3677 64.5814 46.8026 62.1298 48.8197C66.429 49.3859 76.2637 50.943 79.9304 53.9154C83.5971 56.8878 82.7372 59.4002 81.849 60.2849C82.9504 60.3556 85.7289 60.1362 88.0312 58.6925C90.3335 57.2487 91.4776 55.5432 91.7619 54.8708C90.8381 55.2601 88.7987 55.7201 88.0312 54.4462C87.2638 53.1723 87.4272 51.9338 87.6048 51.4738C84.4071 51.0845 78.3102 49.5842 79.504 46.6967C80.9963 43.0873 85.2599 42.9811 86.6455 43.4058C88.0312 43.8304 90.696 44.892 91.0157 50.6245C91.028 50.8438 91.3137 50.6318 91.8062 50.2665C92.9475 49.4199 95.1993 47.7495 97.7309 48.7137C99.5429 49.4037 99.2587 53.3138 97.7309 54.4462C99.5429 54.0923 104.233 51.686 105.405 45.9536C105.492 45.5296 105.076 45.4781 104.251 45.3761C102.851 45.2027 100.273 44.8837 96.9848 42.3442C92.8064 39.117 91.6197 38.1687 91.5487 38.0979L91.7619 34.17C91.328 33.8937 90.8607 33.5972 90.3688 33.2851C86.3885 30.76 80.798 27.2134 78.3315 25.0405C75.8009 22.8111 70.4438 16.4416 68.9516 3.91506C68.6652 1.51115 67.6725 17.1848 71.0205 23.7666C71.6774 25.0581 57.5901 12.7262 55.7781 7.20595C55.7093 6.99642 56.9069 15.0616 62.4496 22.3865C63.0004 23.1144 62.0893 22.9956 60.1669 22.7449C56.2017 22.2277 47.9341 21.1493 39.3195 25.7836C24.7167 33.6393 23.5442 47.8644 24.7167 54.4462C25.5677 59.2233 27.2749 65.9112 36.1218 74.6162C38.0053 76.4694 32.6044 81.3041 23.4376 75.3593C18.1081 71.903 12.2457 66.3358 13.3116 51.4738C14.4387 35.7572 24.0384 25.2296 27.2127 22.7154ZM80.7831 32.8961L88.0312 36.2931L85.3665 37.8855C84.8335 37.1424 83.5971 35.4863 82.9149 34.8069C82.2327 34.1275 81.2094 33.2499 80.7831 32.8961Z" fill="url(#paint0_linear_234_67307)"/>
</g>
<mask id="mask0_234_67307" style="mask-type:alpha" maskUnits="userSpaceOnUse" x="8" y="3" width="98" height="101">
<path fill-rule="evenodd" clip-rule="evenodd" d="M27.2127 22.7154C20.9535 27.0685 10.3928 38.0529 8.51501 54.2338C6.06343 75.3592 20.7729 99.4571 46.3545 103.385C66.8198 106.527 82.3109 94.5738 87.4983 88.2044C99.01 72.9176 97.7309 60.2849 97.7309 60.2849C97.7309 60.2849 96.5584 66.7604 92.0816 70.5822C86.5846 75.2749 82.7017 75.3593 81.849 75.3593C79.5395 73.4838 73.5989 68.6925 67.8857 65.805C60.7441 62.1956 50.1917 56.1446 50.5115 50.1999C50.8341 44.2033 56.5871 41.6011 66.7132 42.3442C67.033 42.3677 64.5814 46.8026 62.1298 48.8197C66.429 49.3859 76.2637 50.943 79.9304 53.9154C83.5971 56.8878 82.7372 59.4002 81.849 60.2849C82.9504 60.3556 85.7289 60.1362 88.0312 58.6925C90.3335 57.2487 91.4776 55.5432 91.7619 54.8708C90.8381 55.2601 88.7987 55.7201 88.0312 54.4462C87.2638 53.1723 87.4272 51.9338 87.6048 51.4738C84.4071 51.0845 78.3102 49.5842 79.504 46.6967C80.9963 43.0873 85.2599 42.9811 86.6455 43.4058C88.0312 43.8304 90.696 44.892 91.0157 50.6245C91.028 50.8438 91.3137 50.6318 91.8062 50.2665C92.9475 49.4199 95.1993 47.7495 97.7309 48.7137C99.5429 49.4037 99.2587 53.3138 97.7309 54.4462C99.5429 54.0923 104.233 51.686 105.405 45.9536C105.492 45.5296 105.076 45.4781 104.251 45.3761C102.851 45.2027 100.273 44.8837 96.9848 42.3442C92.8064 39.117 91.6197 38.1687 91.5487 38.0979L91.7619 34.17C91.328 33.8937 90.8607 33.5972 90.3688 33.2851C86.3885 30.76 80.798 27.2134 78.3315 25.0405C75.8009 22.8111 70.4438 16.4416 68.9516 3.91506C68.6652 1.51115 67.6725 17.1848 71.0205 23.7666C71.6774 25.0581 57.5901 12.7262 55.7781 7.20595C55.7093 6.99642 56.9069 15.0616 62.4496 22.3865C63.0004 23.1144 62.0893 22.9956 60.1669 22.7449C56.2017 22.2277 47.9341 21.1493 39.3195 25.7836C24.7167 33.6393 23.5442 47.8644 24.7167 54.4462C25.5677 59.2233 27.2749 65.9112 36.1218 74.6162C38.0053 76.4694 32.6044 81.3041 23.4376 75.3593C18.1081 71.903 12.2457 66.3358 13.3116 51.4738C14.4387 35.7572 24.0384 25.2296 27.2127 22.7154ZM80.7831 32.8961L88.0312 36.2931L85.3665 37.8855C84.8335 37.1424 83.5971 35.4863 82.9149 34.8069C82.2327 34.1275 81.2094 33.2499 80.7831 32.8961Z" fill="url(#paint1_linear_234_67307)"/>
</mask>
<g mask="url(#mask0_234_67307)">
<path d="M53.4702 40.7507C58.3388 39.982 64.0941 41.421 66.9165 42.1667C65.0832 44 51.1418 44.4792 51.0359 49.5926C50.949 53.7944 55.9611 59.1425 63.2073 62.6958C75.5904 68.7679 80.459 73.5618 82.1524 75.0532C89.0042 81.0877 88.0286 87.5368 88.0286 87.5368C88.0286 87.5368 85.2617 91.7759 79.3348 95.7193C73.4078 99.6627 68.2915 101.292 68.2915 101.292C68.2915 101.292 79.6122 92.0979 65.6416 80.8058C59.2744 75.6594 40.7696 62.8023 40.9813 53.5342C41.1735 45.1206 48.0725 41.6029 53.4702 40.7507Z" fill="url(#paint2_linear_234_67307)"/>
<path d="M86.3869 80.393C84.7918 77.4583 82.4971 75.913 81.5835 75.1667C82.7894 75.1667 88.2507 74.3154 93.0744 69.6239C96.0154 66.7635 97.3071 62.2668 97.7456 59.9211C97.8552 62.2668 98.227 66.2119 96.4729 71.6498C94.639 77.3353 91.5371 83.5917 88.0289 87.5368C88.0289 85.4043 87.6891 82.7887 86.3869 80.393Z" fill="url(#paint3_linear_234_67307)"/>
<g filter="url(#filter1_i_234_67307)">
<path d="M46.7881 83.8169C44.1408 81.3327 38.2516 76.6504 35.75 74.25C35.4284 81.4512 14.3201 77.357 13.4453 55.7534C12.6948 37.2209 22.7727 26.8427 28.1333 22.0772C21.0573 26.4191 8.94238 39.9743 8.29912 55.7534C7.72107 69.9325 12.266 81.2753 20.8429 89.8532C29.9493 98.9606 40.912 102.684 46.0939 103.39C48.0237 102.861 51.1248 99.2783 52.0415 95.2541C53.1753 90.2768 48.9324 85.829 46.7881 83.8169Z" fill="url(#paint4_linear_234_67307)"/>
</g>
</g>
<defs>
<filter id="filter0_i_234_67307" x="8.25" y="1.66666" width="97.1665" height="102.235" filterUnits="userSpaceOnUse" color-interpolation-filters="sRGB">
<feFlood flood-opacity="0" result="BackgroundImageFix"/>
<feBlend mode="normal" in="SourceGraphic" in2="BackgroundImageFix" result="shape"/>
<feColorMatrix in="SourceAlpha" type="matrix" values="0 0 0 0 0 0 0 0 0 0 0 0 0 0 0 0 0 0 127 0" result="hardAlpha"/>
<feOffset dy="-2"/>
<feGaussianBlur stdDeviation="2"/>
<feComposite in2="hardAlpha" operator="arithmetic" k2="-1" k3="1"/>
<feColorMatrix type="matrix" values="0 0 0 0 1 0 0 0 0 0.964706 0 0 0 0 0.956863 0 0 0 1 0"/>
<feBlend mode="normal" in2="shape" result="effect1_innerShadow_234_67307"/>
</filter>
<filter id="filter1_i_234_67307" x="8.25" y="20.0772" width="43.9805" height="83.3131" filterUnits="userSpaceOnUse" color-interpolation-filters="sRGB">
<feFlood flood-opacity="0" result="BackgroundImageFix"/>
<feBlend mode="normal" in="SourceGraphic" in2="BackgroundImageFix" result="shape"/>
<feColorMatrix in="SourceAlpha" type="matrix" values="0 0 0 0 0 0 0 0 0 0 0 0 0 0 0 0 0 0 127 0" result="hardAlpha"/>
<feOffset dy="-2"/>
<feGaussianBlur stdDeviation="2"/>
<feComposite in2="hardAlpha" operator="arithmetic" k2="-1" k3="1"/>
<feColorMatrix type="matrix" values="0 0 0 0 1 0 0 0 0 0.964706 0 0 0 0 0.956863 0 0 0 1 0"/>
<feBlend mode="normal" in2="shape" result="effect1_innerShadow_234_67307"/>
</filter>
<linearGradient id="paint0_linear_234_67307" x1="56.8333" y1="3.66666" x2="56.8333" y2="103.902" gradientUnits="userSpaceOnUse">
<stop stop-color="#FF7F79"/>
<stop offset="1" stop-color="#FB4B4B"/>
</linearGradient>
<linearGradient id="paint1_linear_234_67307" x1="56.8333" y1="3.66666" x2="56.8333" y2="103.902" gradientUnits="userSpaceOnUse">
<stop stop-color="#FF736D"/>
<stop offset="1" stop-color="#F73E46"/>
</linearGradient>
<linearGradient id="paint2_linear_234_67307" x1="64.4833" y1="40.4526" x2="64.4833" y2="100.833" gradientUnits="userSpaceOnUse">
<stop stop-color="#F3464A"/>
<stop offset="1" stop-color="#FFAA96"/>
</linearGradient>
<linearGradient id="paint3_linear_234_67307" x1="98.3367" y1="61.3072" x2="88.0919" y2="86.5664" gradientUnits="userSpaceOnUse">
<stop stop-color="#FF9C8B"/>
<stop offset="1" stop-color="#F7434A"/>
</linearGradient>
<linearGradient id="paint4_linear_234_67307" x1="30.2404" y1="22.0772" x2="30.2404" y2="102.879" gradientUnits="userSpaceOnUse">
<stop offset="0.111391" stop-color="#FF9E8D"/>
<stop offset="1" stop-color="#EF323B"/>
</linearGradient>
</defs>
</svg>
