<svg width="24" height="24" viewBox="0 0 24 24" fill="none" xmlns="http://www.w3.org/2000/svg">
<g id="Frame" clip-path="url(#clip0_862_30057)">
<path id="Vector" d="M24 0H0V24H24V0Z" fill="white" fill-opacity="0.01"/>
<path id="Vector_2" d="M12 22C16.1173 22 19.4999 18.7371 19.4999 14.5491C19.4999 13.5209 19.4476 12.4187 18.8778 10.7058C18.3079 8.9929 18.1931 8.7718 17.5905 7.71395C17.333 9.8727 15.9555 10.7724 15.6055 11.0413C15.6055 10.7615 14.7722 7.66795 13.5088 5.81695C12.2685 4 10.5817 2.80796 9.59265 2C9.59265 3.53489 9.16095 5.81695 8.5427 6.9797C7.92445 8.14245 7.80835 8.1848 7.0361 9.0501C6.2639 9.9154 5.90945 10.1826 5.2637 11.2325C4.61798 12.2825 4.5 13.6809 4.5 14.7091C4.5 18.8971 7.88265 22 12 22Z" fill="white"/>
</g>
<defs>
<clipPath id="clip0_862_30057">
<rect width="24" height="24" fill="white"/>
</clipPath>
</defs>
</svg>
